<svg xmlns="http://www.w3.org/2000/svg" xmlns:xlink="http://www.w3.org/1999/xlink"  viewBox="0 0 300.76 205.76" preserveAspectRatio="none slice"><defs><style>.cls-1{isolation:isolate;}.cls-2{fill:url(#linear-gradient);}.cls-10,.cls-11,.cls-12,.cls-13,.cls-14,.cls-15,.cls-16,.cls-17,.cls-18,.cls-19,.cls-20,.cls-21,.cls-22,.cls-23,.cls-3,.cls-34,.cls-4,.cls-5,.cls-6,.cls-7,.cls-8,.cls-9{opacity:0.4;}.cls-10,.cls-11,.cls-12,.cls-13,.cls-14,.cls-15,.cls-16,.cls-17,.cls-18,.cls-19,.cls-20,.cls-21,.cls-22,.cls-23,.cls-3,.cls-4,.cls-5,.cls-6,.cls-7,.cls-8,.cls-9{mix-blend-mode:multiply;}.cls-3{fill:url(#linear-gradient-2);}.cls-4{fill:url(#linear-gradient-3);}.cls-5{fill:url(#linear-gradient-4);}.cls-6{fill:url(#linear-gradient-5);}.cls-7{fill:url(#linear-gradient-6);}.cls-8{fill:url(#linear-gradient-7);}.cls-9{fill:url(#linear-gradient-8);}.cls-10{fill:url(#linear-gradient-9);}.cls-11{fill:url(#linear-gradient-10);}.cls-12{fill:url(#linear-gradient-11);}.cls-13{fill:url(#linear-gradient-12);}.cls-14{fill:url(#linear-gradient-13);}.cls-15{fill:url(#linear-gradient-14);}.cls-16{fill:url(#linear-gradient-15);}.cls-17{fill:url(#linear-gradient-16);}.cls-18{fill:url(#linear-gradient-17);}.cls-19{fill:url(#linear-gradient-18);}.cls-20{fill:url(#linear-gradient-19);}.cls-21{fill:url(#linear-gradient-20);}.cls-22{fill:url(#linear-gradient-21);}.cls-23{fill:url(#linear-gradient-22);}.cls-24,.cls-25,.cls-26,.cls-27,.cls-28,.cls-29,.cls-30,.cls-31,.cls-32,.cls-36{mix-blend-mode:color-dodge;}.cls-24{fill:url(#linear-gradient-23);}.cls-25{fill:url(#linear-gradient-24);}.cls-26,.cls-28,.cls-29,.cls-31,.cls-32,.cls-38,.cls-39{opacity:0.5;}.cls-26{fill:url(#linear-gradient-25);}.cls-27,.cls-30{opacity:0.3;}.cls-27{fill:url(#linear-gradient-26);}.cls-28{fill:url(#linear-gradient-27);}.cls-29{fill:url(#linear-gradient-28);}.cls-30{fill:url(#linear-gradient-29);}.cls-31{fill:url(#linear-gradient-30);}.cls-32{fill:url(#linear-gradient-31);}.cls-33,.cls-34,.cls-35,.cls-38,.cls-39,.cls-40{mix-blend-mode:color-burn;}.cls-33{fill:url(#linear-gradient-32);}.cls-34{fill:url(#linear-gradient-33);}.cls-35{fill:url(#linear-gradient-34);}.cls-36{fill:url(#radial-gradient);}.cls-37,.cls-41,.cls-42{mix-blend-mode:screen;}.cls-37{fill:url(#radial-gradient-2);}.cls-38{fill:url(#radial-gradient-3);}.cls-39{fill:url(#radial-gradient-4);}.cls-40{fill:#cdced0;}.cls-41{fill:url(#linear-gradient-35);}.cls-42{fill:url(#radial-gradient-5);}</style><linearGradient id="linear-gradient" x1="5958.9" y1="285.47" x2="6268.46" y2="285.47" gradientTransform="translate(365.08 -3710.62) rotate(90) scale(0.62 0.75)" gradientUnits="userSpaceOnUse"><stop offset="0" stop-color="#4e4e50"/><stop offset="1" stop-color="#fff"/></linearGradient><linearGradient id="linear-gradient-2" x1="490.89" y1="-462.16" x2="397.79" y2="-110.38" gradientTransform="translate(590.3 574.46) rotate(-90)" gradientUnits="userSpaceOnUse"><stop offset="0" stop-color="#fffefe"/><stop offset="1"/></linearGradient><linearGradient id="linear-gradient-3" x1="5230.33" y1="-399.21" x2="5445.63" y2="-235.9" gradientTransform="matrix(0, 1, 1, 0, 590.3, -5192.82)" xlink:href="#linear-gradient-2"/><linearGradient id="linear-gradient-4" x1="548.96" y1="-516.07" x2="372.68" y2="-371.2" xlink:href="#linear-gradient-2"/><linearGradient id="linear-gradient-5" x1="458.35" y1="-547.06" x2="534.27" y2="-230.13" xlink:href="#linear-gradient-2"/><linearGradient id="linear-gradient-6" x1="452.44" y1="-428.49" x2="702" y2="-527.11" xlink:href="#linear-gradient-2"/><linearGradient id="linear-gradient-7" x1="416.6" y1="-512.29" x2="329.35" y2="-674.11" xlink:href="#linear-gradient-2"/><linearGradient id="linear-gradient-8" x1="467.55" y1="-414.92" x2="296.44" y2="-746.26" xlink:href="#linear-gradient-2"/><linearGradient id="linear-gradient-9" x1="587.4" y1="-518.48" x2="310.16" y2="-165.58" xlink:href="#linear-gradient-2"/><linearGradient id="linear-gradient-10" x1="378.98" y1="-381.62" x2="584.5" y2="-429.02" xlink:href="#linear-gradient-2"/><linearGradient id="linear-gradient-11" x1="488.68" y1="-346.91" x2="647.19" y2="-526.83" xlink:href="#linear-gradient-2"/><linearGradient id="linear-gradient-12" x1="429.38" y1="-433.66" x2="595.5" y2="-633.02" xlink:href="#linear-gradient-2"/><linearGradient id="linear-gradient-13" x1="496.41" y1="-567.8" x2="445.01" y2="-300.34" xlink:href="#linear-gradient-2"/><linearGradient id="linear-gradient-14" x1="476.05" y1="-300.3" x2="461.58" y2="-436.32" xlink:href="#linear-gradient-2"/><linearGradient id="linear-gradient-15" x1="4957.17" y1="-348.59" x2="5085.03" y2="-517.14" gradientTransform="matrix(0, 1, 1, 0, 590.3, -4874.8)" xlink:href="#linear-gradient-2"/><linearGradient id="linear-gradient-16" x1="4885.07" y1="-381.62" x2="5090.6" y2="-429.02" gradientTransform="matrix(0, 1, 1, 0, 590.3, -4874.8)" xlink:href="#linear-gradient-2"/><linearGradient id="linear-gradient-17" x1="535.28" y1="-437.18" x2="263.62" y2="-567.56" xlink:href="#linear-gradient-2"/><linearGradient id="linear-gradient-18" x1="438.02" y1="-582.76" x2="483.02" y2="-403.76" xlink:href="#linear-gradient-2"/><linearGradient id="linear-gradient-19" x1="570.07" y1="-508.31" x2="454.29" y2="-410.12" xlink:href="#linear-gradient-2"/><linearGradient id="linear-gradient-20" x1="555.62" y1="-576.79" x2="524.05" y2="-397.14" xlink:href="#linear-gradient-2"/><linearGradient id="linear-gradient-21" x1="479.01" y1="-406.85" x2="422.06" y2="-33.1" xlink:href="#linear-gradient-2"/><linearGradient id="linear-gradient-22" x1="416.11" y1="-311.3" x2="763.88" y2="-1051.7" xlink:href="#linear-gradient-2"/><linearGradient id="linear-gradient-23" x1="4760.4" y1="395" x2="4663.05" y2="762.56" gradientTransform="translate(833.84 -4578.02) rotate(90)" xlink:href="#linear-gradient-2"/><linearGradient id="linear-gradient-24" x1="270.55" y1="-773.2" x2="457.49" y2="-467.1" xlink:href="#linear-gradient-2"/><linearGradient id="linear-gradient-25" x1="547.55" y1="-576.3" x2="429.29" y2="-539.53" gradientTransform="translate(590.3 574.46) rotate(-90)" gradientUnits="userSpaceOnUse"><stop offset="0" stop-color="#929496"/><stop offset="1"/></linearGradient><linearGradient id="linear-gradient-26" x1="426.95" y1="-184.8" x2="540.74" y2="-557.98" xlink:href="#linear-gradient-25"/><linearGradient id="linear-gradient-27" x1="544.33" y1="-306.27" x2="410.98" y2="-460.28" xlink:href="#linear-gradient-25"/><linearGradient id="linear-gradient-28" x1="606.26" y1="-522.08" x2="486.62" y2="-502.01" xlink:href="#linear-gradient-25"/><linearGradient id="linear-gradient-29" x1="500.05" y1="-359.32" x2="478.6" y2="-495.95" xlink:href="#linear-gradient-25"/><linearGradient id="linear-gradient-30" x1="635.59" y1="-322.09" x2="514.54" y2="-571.15" xlink:href="#linear-gradient-25"/><linearGradient id="linear-gradient-31" x1="521.67" y1="-470.72" x2="634.87" y2="-380.53" xlink:href="#linear-gradient-25"/><linearGradient id="linear-gradient-32" x1="518.76" y1="-445.1" x2="247.1" y2="-575.48" xlink:href="#linear-gradient-2"/><linearGradient id="linear-gradient-33" x1="385.54" y1="-381.06" x2="551.67" y2="-580.41" xlink:href="#linear-gradient-2"/><linearGradient id="linear-gradient-34" x1="4917.74" y1="-387.79" x2="5233.05" y2="-688.95" gradientTransform="matrix(0, 1, 1, 0, 590.3, -4874.8)" xlink:href="#linear-gradient-2"/><radialGradient id="radial-gradient" cx="634.38" cy="-689.81" r="128.84" gradientTransform="matrix(0, -0.48, 1.04, 0, 918.99, 384.11)" gradientUnits="userSpaceOnUse"><stop offset="0" stop-color="#353435"/><stop offset="1"/></radialGradient><radialGradient id="radial-gradient-2" cx="4601.75" cy="306.93" r="158.66" gradientTransform="matrix(0, 0.48, -1, 0, 575.52, -2073.41)" gradientUnits="userSpaceOnUse"><stop offset="0" stop-color="#fbf7f5"/><stop offset="1"/></radialGradient><radialGradient id="radial-gradient-3" cx="632.05" cy="-573.76" r="165.02" gradientTransform="matrix(0, -0.48, 1, 0, 590.3, 384.11)" gradientUnits="userSpaceOnUse"><stop offset="0" stop-color="#939496"/><stop offset="0.09" stop-color="#9d9ea0"/><stop offset="0.71" stop-color="#e3e4e4"/><stop offset="1" stop-color="#fff"/></radialGradient><radialGradient id="radial-gradient-4" cx="568.08" cy="-396.61" r="120.83" xlink:href="#radial-gradient-3"/><linearGradient id="linear-gradient-35" x1="2531.54" y1="2432.09" x2="2531.54" y2="2353.58" gradientTransform="translate(-2381.16 -2244.2)" xlink:href="#radial-gradient-2"/><radialGradient id="radial-gradient-5" cx="4462.17" cy="2627.05" r="261.98" gradientTransform="matrix(0, 0.48, -1, 0, 2779.31, -2097.8)" gradientUnits="userSpaceOnUse"><stop offset="0"/><stop offset="0.29" stop-color="#020202"/><stop offset="0.43" stop-color="#0a0a0a"/><stop offset="0.53" stop-color="#171717"/><stop offset="0.62" stop-color="#292929"/><stop offset="0.7" stop-color="#414141"/><stop offset="0.77" stop-color="#5f5f5f"/><stop offset="0.84" stop-color="#828282"/><stop offset="0.9" stop-color="#aaa"/><stop offset="0.96" stop-color="#d7d7d7"/><stop offset="1" stop-color="#fff"/></radialGradient></defs><title>content0background</title><g class="cls-1"><g id="Layer_2" data-name="Layer 2"><g id="bg_1" data-name="bg 1"><rect class="cls-2" width="300.76" height="205.68"/><polygon class="cls-3" points="191.91 0 0 71.12 0 88.33 153.32 205.76 248.86 0 191.91 0"/><polygon class="cls-4" points="300.76 0 300.76 37.63 73.66 64.78 126.22 0 300.76 0"/><polygon class="cls-5" points="193.41 0 0 0 0 105.69 193.41 0"/><polygon class="cls-6" points="103.72 205.76 130.77 205.76 66.16 0 0 99.6 0 182.96 103.72 205.76"/><polygon class="cls-7" points="131.19 205.68 176.34 205.68 300.75 114.14 300.76 73.86 0 99.09 0 112.34 131.19 205.68"/><polygon class="cls-8" points="131.19 205.68 176.34 205.68 300.75 114.14 300.76 73.86 0 99.09 0 112.34 131.19 205.68"/><polygon class="cls-9" points="300.08 205.68 300.76 205.68 300.76 0 65.74 0 300.08 205.68"/><polygon class="cls-10" points="0.74 0 137.74 205.76 300.76 0 0.74 0"/><polygon class="cls-11" points="100.67 205.76 300.76 205.76 300.76 116.1 100.67 205.76"/><polygon class="cls-12" points="94.73 91.14 300.75 205.68 300.76 0 94.73 91.14"/><polygon class="cls-13" points="0 197.62 0 205.68 300.75 205.68 300.76 74.06 0 197.62"/><polygon class="cls-14" points="0 0 0 83.35 67.74 184.05 122.71 0 0 0"/><polygon class="cls-15" points="225.15 0 300.75 202.58 300.76 0 225.15 0"/><polygon class="cls-16" points="300.08 0 300.76 0 300.76 205.68 128.69 0 300.08 0"/><polygon class="cls-17" points="100.67 0 300.76 0 300.76 89.66 100.67 0"/><polygon class="cls-18" points="300.76 0 0 0 0 44.43 300.76 89.8 300.76 0"/><polygon class="cls-19" points="0 46.17 0 205.68 98.72 205.68 0 46.17"/><polygon class="cls-20" points="194.11 0 0 0 0 44.31 194.11 0"/><polygon class="cls-21" points="64.1 0 0 0 0 44.2 64.1 0"/><polygon class="cls-22" points="191.95 0 0.11 71.09 0.11 88.3 200.66 205.68 263.24 0 191.95 0"/><polygon class="cls-23" points="100.67 205.68 300.76 205.68 300.76 37.48 100.67 205.68"/><polygon class="cls-24" points="144.85 0 0 0 0 170.67 144.85 0"/><polygon class="cls-25" points="300.75 118.19 262.52 0 0 0 0 1.73 300.75 200.75 300.75 118.19"/><polygon class="cls-26" points="1.34 47.27 75.3 166.39 76.23 165.99 1.34 47.27"/><polygon class="cls-27" points="272.38 85.62 1.53 44.97 1.53 45.63 272.38 85.62"/><polygon class="cls-28" points="272.38 85.62 75.06 166.66 74.56 166.09 272.38 85.62"/><polygon class="cls-29" points="94.91 90.93 66.79 1.17 95.75 90.85 94.91 90.93"/><polygon class="cls-30" points="232.01 79.58 94.91 90.93 94.83 90.46 232.01 79.58"/><polygon class="cls-31" points="190.27 1.1 1.12 44.34 2.12 44.53 190.27 1.1"/><polygon class="cls-32" points="84.9 59.06 189.99 1.68 189.44 1.74 84.9 59.06"/><polygon class="cls-33" points="300.76 0 0 0 0 44.43 300.76 89.8 300.76 0"/><polygon class="cls-34" points="0 197.62 0 205.68 300.75 205.68 300.76 74.06 0 197.62"/><polygon class="cls-35" points="100.67 0 300.76 0 300.76 89.66 100.67 0"/><path class="cls-36" d="M73.69,55.17v45C92.61,125,142,142.71,199.94,142.71c40.14,0,76.17-8.51,100.82-22V34.59c-24.65-13.49-60.67-22-100.82-22C142,12.59,92.61,30.32,73.69,55.17Z"/><path class="cls-37" d="M300.76,205.76V76.64a310.63,310.63,0,0,0-45.85-3.34c-85.52,0-154.85,33.54-154.85,74.9,0,23.13,21.68,43.81,55.74,57.55Z"/><path class="cls-38" d="M31.45,159.63c91.13,0,165-35.73,165-79.81S122.58,0,31.45,0C20.69,0,10.18.5,0,1.45V158.17C10.18,159.12,20.69,159.63,31.45,159.63Z"/><path class="cls-39" d="M67.76,109.15c0,34.41,57.66,62.3,128.79,62.3,42.85,0,80.8-10.12,104.21-25.69V72.54C277.34,57,239.39,46.85,196.55,46.85,125.42,46.85,67.76,74.74,67.76,109.15Z"/><rect class="cls-40" width="300.75" height="205.68"/><rect class="cls-41" y="84.28" width="300.76" height="121.48"/><rect class="cls-42" width="300.75" height="205.68"/></g></g></g></svg>